<svg width="142" height="142" viewBox="0 0 142 142" fill="none" xmlns="http://www.w3.org/2000/svg">
<rect width="2" height="2" fill="white"/>
<rect x="80" width="2" height="2" fill="white"/>
<rect y="80" width="2" height="2" fill="white"/>
<rect x="80" y="80" width="2" height="2" fill="white"/>
<rect x="20" width="2" height="2" fill="white"/>
<rect x="100" width="2" height="2" fill="white"/>
<rect x="20" y="80" width="2" height="2" fill="white"/>
<rect x="100" y="80" width="2" height="2" fill="white"/>
<rect x="40" width="2" height="2" fill="white"/>
<rect x="120" width="2" height="2" fill="white"/>
<rect x="40" y="80" width="2" height="2" fill="white"/>
<rect x="120" y="80" width="2" height="2" fill="white"/>
<rect x="60" width="2" height="2" fill="white"/>
<rect x="140" width="2" height="2" fill="white"/>
<rect x="60" y="80" width="2" height="2" fill="white"/>
<rect x="140" y="80" width="2" height="2" fill="white"/>
<rect y="20" width="2" height="2" fill="white"/>
<rect x="80" y="20" width="2" height="2" fill="white"/>
<rect y="100" width="2" height="2" fill="white"/>
<rect x="80" y="100" width="2" height="2" fill="white"/>
<rect x="20" y="20" width="2" height="2" fill="white"/>
<rect x="100" y="20" width="2" height="2" fill="white"/>
<rect x="20" y="100" width="2" height="2" fill="white"/>
<rect x="100" y="100" width="2" height="2" fill="white"/>
<rect x="40" y="20" width="2" height="2" fill="white"/>
<rect x="120" y="20" width="2" height="2" fill="white"/>
<rect x="40" y="100" width="2" height="2" fill="white"/>
<rect x="120" y="100" width="2" height="2" fill="white"/>
<rect x="60" y="20" width="2" height="2" fill="white"/>
<rect x="140" y="20" width="2" height="2" fill="white"/>
<rect x="60" y="100" width="2" height="2" fill="white"/>
<rect x="140" y="100" width="2" height="2" fill="white"/>
<rect y="40" width="2" height="2" fill="white"/>
<rect x="80" y="40" width="2" height="2" fill="white"/>
<rect y="120" width="2" height="2" fill="white"/>
<rect x="80" y="120" width="2" height="2" fill="white"/>
<rect x="20" y="40" width="2" height="2" fill="white"/>
<rect x="100" y="40" width="2" height="2" fill="white"/>
<rect x="20" y="120" width="2" height="2" fill="white"/>
<rect x="100" y="120" width="2" height="2" fill="white"/>
<rect x="40" y="40" width="2" height="2" fill="white"/>
<rect x="120" y="40" width="2" height="2" fill="white"/>
<rect x="40" y="120" width="2" height="2" fill="white"/>
<rect x="120" y="120" width="2" height="2" fill="white"/>
<rect x="60" y="40" width="2" height="2" fill="white"/>
<rect x="140" y="40" width="2" height="2" fill="white"/>
<rect x="60" y="120" width="2" height="2" fill="white"/>
<rect x="140" y="120" width="2" height="2" fill="white"/>
<rect y="60" width="2" height="2" fill="white"/>
<rect x="80" y="60" width="2" height="2" fill="white"/>
<rect y="140" width="2" height="2" fill="white"/>
<rect x="80" y="140" width="2" height="2" fill="white"/>
<rect x="20" y="60" width="2" height="2" fill="white"/>
<rect x="100" y="60" width="2" height="2" fill="white"/>
<rect x="20" y="140" width="2" height="2" fill="white"/>
<rect x="100" y="140" width="2" height="2" fill="white"/>
<rect x="40" y="60" width="2" height="2" fill="white"/>
<rect x="120" y="60" width="2" height="2" fill="white"/>
<rect x="40" y="140" width="2" height="2" fill="white"/>
<rect x="120" y="140" width="2" height="2" fill="white"/>
<rect x="60" y="60" width="2" height="2" fill="white"/>
<rect x="140" y="60" width="2" height="2" fill="white"/>
<rect x="60" y="140" width="2" height="2" fill="white"/>
<rect x="140" y="140" width="2" height="2" fill="white"/>
</svg>
