<svg width="51" height="52" viewBox="0 0 51 52" fill="none" xmlns="http://www.w3.org/2000/svg">
<path d="M6.09096 21.9031C8.69983 21.9031 10.8147 19.7706 10.8147 17.14C10.8147 14.5095 8.69983 12.377 6.09096 12.377C3.48209 12.377 1.36719 14.5095 1.36719 17.14C1.36719 19.7706 3.48209 21.9031 6.09096 21.9031Z" stroke="black" stroke-miterlimit="10" stroke-linecap="round" stroke-linejoin="round"/>
<path d="M9.86042 25.8765C9.86042 26.7896 9.54224 27.6287 9.00378 28.2704C8.95482 28.3444 10.1052 35.7975 10.1052 35.7975L16.787 38.1667C16.9094 39.0058 16.8115 47.5942 16.787 48.606C16.738 51.4441 13.1157 51.1233 13.1157 48.606C13.1157 47.0512 13.1157 41.0295 13.1157 41.0295C12.4059 41.0295 4.05972 40.4866 3.49678 40.1164C2.44434 39.45 2.44434 27.1845 2.44434 25.8518C2.44434 23.7788 4.10867 22.1006 6.16462 22.1006C8.22056 22.1006 9.86042 23.8034 9.86042 25.8765Z" stroke="black" stroke-miterlimit="10" stroke-linecap="round" stroke-linejoin="round"/>
<path d="M30.0286 10.6248C30.0286 12.2536 28.7069 13.5863 27.0915 13.5863H20.7279L15.2698 18.2013L17.1055 13.5863H15.7593C14.1439 13.5863 12.8223 12.2536 12.8223 10.6248V4.33162C12.8223 2.70279 14.1439 1.37012 15.7593 1.37012H27.0915C28.7069 1.37012 30.0286 2.70279 30.0286 4.33162V10.6248Z" stroke="black" stroke-miterlimit="10" stroke-linecap="round" stroke-linejoin="round"/>
<path d="M36.9058 11.5134C36.9058 12.8461 36.5386 14.1047 35.9023 15.1659L37.8114 18.2015L33.7729 17.4364C32.647 18.2015 31.2764 18.6704 29.8079 18.6704C25.8918 18.6704 22.71 15.4621 22.71 11.5134C22.71 7.56474 25.8918 4.35645 29.8079 4.35645C33.7239 4.35645 36.9058 7.56474 36.9058 11.5134Z" stroke="black" stroke-miterlimit="10" stroke-linecap="round" stroke-linejoin="round"/>
<path d="M17.0068 34.5884H35.4369" stroke="black" stroke-miterlimit="10" stroke-linecap="round" stroke-linejoin="round"/>
<path d="M19.7725 50.5064V34.5884" stroke="black" stroke-miterlimit="10" stroke-linecap="round" stroke-linejoin="round"/>
<path d="M31.2764 50.5064V34.5884" stroke="black" stroke-miterlimit="10" stroke-linecap="round" stroke-linejoin="round"/>
<path d="M20.2617 32.3179H31.2757" stroke="black" stroke-miterlimit="10" stroke-linecap="round" stroke-linejoin="round"/>
<path d="M30.2478 25.4814H21.4121V32.2929H30.2478V25.4814Z" stroke="black" stroke-miterlimit="10" stroke-linecap="round" stroke-linejoin="round"/>
<path d="M44.8849 21.7796C47.4938 21.7796 49.6087 19.6471 49.6087 17.0165C49.6087 14.3859 47.4938 12.2534 44.8849 12.2534C42.276 12.2534 40.1611 14.3859 40.1611 17.0165C40.1611 19.6471 42.276 21.7796 44.8849 21.7796Z" stroke="black" stroke-miterlimit="10" stroke-linecap="round" stroke-linejoin="round"/>
<path d="M41.1392 25.753C41.1392 26.6661 41.4574 27.5052 41.9958 28.1468C42.0448 28.2209 40.8944 35.674 40.8944 35.674L34.2126 38.0432C34.0902 38.8823 34.1881 47.4706 34.2126 48.4825C34.2615 51.3206 37.8839 50.9998 37.8839 48.4825C37.8839 46.9277 37.8839 40.906 37.8839 40.906C38.5937 40.906 46.9399 40.363 47.5028 39.9928C48.5553 39.3265 48.5553 27.061 48.5553 25.7283C48.5553 23.6552 46.8909 21.9771 44.835 21.9771C42.8035 22.0017 41.1392 23.6799 41.1392 25.753Z" stroke="black" stroke-miterlimit="10" stroke-linecap="round" stroke-linejoin="round"/>
</svg>
