<svg width="20" height="21" viewBox="0 0 20 21" fill="none" xmlns="http://www.w3.org/2000/svg">
<path d="M3.03805 20.2897C1.92392 20.2897 1 19.3788 1 18.2803V6.59921C1 5.50076 1.92392 4.58984 3.03805 4.58984C4.15219 4.58984 5.07611 5.50076 5.07611 6.59921V18.2803C5.04894 19.3788 4.15219 20.2897 3.03805 20.2897Z" stroke="black" stroke-miterlimit="10" stroke-linecap="round" stroke-linejoin="round"/>
<path d="M9.96774 20.2899C8.85361 20.2899 7.92969 19.379 7.92969 18.2806V3.00937C7.92969 1.91091 8.85361 1 9.96774 1C11.0819 1 12.0058 1.91091 12.0058 3.00937V18.2806C11.9786 19.379 11.0819 20.2899 9.96774 20.2899Z" stroke="black" stroke-miterlimit="10" stroke-linecap="round" stroke-linejoin="round"/>
<path d="M16.6787 20.29C15.5645 20.29 14.6406 19.3791 14.6406 18.2806V9.78769C14.6406 8.68923 15.5645 7.77832 16.6787 7.77832C17.7928 7.77832 18.7167 8.68923 18.7167 9.78769V18.2806C18.7167 19.3791 17.82 20.29 16.6787 20.29Z" stroke="black" stroke-miterlimit="10" stroke-linecap="round" stroke-linejoin="round"/>
<path opacity="0.5" d="M3.03809 18.5486C3.03809 18.5486 3.52722 18.5486 3.52722 16.7268C3.52722 14.9049 3.52722 7.18896 3.52722 7.18896" stroke="black" stroke-miterlimit="10" stroke-linecap="round" stroke-linejoin="round"/>
<path opacity="0.5" d="M9.85938 18.3077C9.85938 18.3077 10.3485 18.3077 10.3485 16.4859C10.3485 14.664 10.3485 4.00098 10.3485 4.00098" stroke="black" stroke-miterlimit="10" stroke-linecap="round" stroke-linejoin="round"/>
<path opacity="0.5" d="M16.6797 18.575C16.6797 18.575 17.1688 18.575 17.1688 16.7531C17.1688 14.9313 17.1688 10.6982 17.1688 10.6982" stroke="black" stroke-miterlimit="10" stroke-linecap="round" stroke-linejoin="round"/>
</svg>
