<svg width="43" height="52" viewBox="0 0 43 52" fill="none" xmlns="http://www.w3.org/2000/svg">
<path d="M21.5118 11.939C24.4535 11.939 26.8381 9.57271 26.8381 6.65381C26.8381 3.7349 24.4535 1.36865 21.5118 1.36865C18.5702 1.36865 16.1855 3.7349 16.1855 6.65381C16.1855 9.57271 18.5702 11.939 21.5118 11.939Z" stroke="black" stroke-miterlimit="10" stroke-linecap="round" stroke-linejoin="round"/>
<path d="M13.3613 20.0021C13.3613 15.5281 17.003 11.9146 21.5118 11.9146C26.0205 11.9146 29.6622 15.5281 29.6622 20.0021" stroke="black" stroke-miterlimit="10" stroke-linecap="round" stroke-linejoin="round"/>
<path d="M32.71 13.3157C34.5707 13.3157 36.0792 11.8189 36.0792 9.97256C36.0792 8.12618 34.5707 6.62939 32.71 6.62939C30.8493 6.62939 29.3408 8.12618 29.3408 9.97256C29.3408 11.8189 30.8493 13.3157 32.71 13.3157Z" stroke="black" stroke-miterlimit="10" stroke-linecap="round" stroke-linejoin="round"/>
<path d="M29.6875 14.2987C30.5298 13.6842 31.5951 13.3154 32.7099 13.3154C35.5588 13.3154 37.8627 15.6016 37.8627 18.4285" stroke="black" stroke-miterlimit="10" stroke-linecap="round" stroke-linejoin="round"/>
<path d="M10.5127 13.3157C12.3735 13.3157 13.8819 11.8189 13.8819 9.97256C13.8819 8.12618 12.3735 6.62939 10.5127 6.62939C8.65199 6.62939 7.14355 8.12618 7.14355 9.97256C7.14355 11.8189 8.65199 13.3157 10.5127 13.3157Z" stroke="black" stroke-miterlimit="10" stroke-linecap="round" stroke-linejoin="round"/>
<path d="M13.56 14.2987C12.7177 13.6842 11.6524 13.3154 10.5376 13.3154C7.68869 13.3154 5.38477 15.6016 5.38477 18.4285" stroke="black" stroke-miterlimit="10" stroke-linecap="round" stroke-linejoin="round"/>
<path d="M1.37207 48.4184C1.37207 49.6475 2.36301 50.6308 3.60168 50.6308H39.3993C40.6379 50.6308 41.6289 49.6475 41.6289 48.4184V29.7851C41.6289 28.556 40.6379 27.5728 39.3993 27.5728H3.60168C2.36301 27.5728 1.37207 28.556 1.37207 29.7851V48.4184Z" stroke="black" stroke-miterlimit="10" stroke-linecap="round" stroke-linejoin="round"/>
<path d="M15.0465 25.0408C15.0465 24.3771 15.5916 23.8363 16.2604 23.8363H26.2689C26.9378 23.8363 27.4828 24.3771 27.4828 25.0408V27.5728H29.2665V23.5413C29.2665 22.7301 28.5976 22.0664 27.7801 22.0664H14.8731C14.0556 22.0664 13.3867 22.7301 13.3867 23.5413V27.5482H15.0465V25.0408Z" stroke="black" stroke-miterlimit="10" stroke-linecap="round" stroke-linejoin="round"/>
<path d="M23.0731 45.5672C22.8253 44.9281 22.3794 44.5839 21.6858 44.5348C21.3389 44.5102 21.0417 44.6085 20.7691 44.8052C20.4966 45.0018 20.3232 45.2476 20.1994 45.5672C19.5552 45.4197 18.9359 45.1739 18.3661 44.8297C18.6386 44.2152 18.5891 43.6252 18.1184 43.1336C17.5981 42.5928 16.9788 42.519 16.3099 42.814C16.2108 42.6174 16.087 42.4207 15.9879 42.224C15.8145 41.8553 15.6658 41.4866 15.5667 41.0933C15.542 41.0441 15.542 40.9949 15.6163 40.9704C16.2604 40.7245 16.6072 40.1837 16.6072 39.52C16.6072 38.93 16.1861 38.3892 15.5915 38.168C15.5667 38.168 15.5667 38.168 15.542 38.1434C15.5172 37.8976 15.9879 36.7176 16.2604 36.3243C17.0284 36.7176 17.722 36.4227 18.0688 36.0293C18.4404 35.636 18.6386 34.9723 18.2918 34.284C18.8616 33.9399 19.4562 33.694 20.125 33.522C20.3975 34.2103 20.8682 34.6282 21.6114 34.6036C22.3299 34.579 22.7758 34.1857 23.0235 33.522C23.4694 33.5711 24.4604 33.989 24.8568 34.2594C24.5347 34.9477 24.609 35.5869 25.1788 36.1031C25.6 36.4964 26.2688 36.6193 26.8882 36.2752C27.235 36.8406 27.4827 37.4305 27.6314 38.0942C26.9625 38.3401 26.5909 38.7825 26.5661 39.4954C26.5414 39.815 26.6652 40.1346 26.8634 40.405C27.0616 40.6754 27.3341 40.8474 27.6562 40.9458C27.5075 41.5849 27.2598 42.1995 26.8882 42.7403C26.2441 42.4453 25.6247 42.519 25.1293 43.0107C24.6338 43.5023 24.5595 44.1169 24.8568 44.756C24.3365 45.1739 23.7172 45.4197 23.0731 45.5672ZM21.6114 42.519C23.2713 42.519 24.5347 41.1916 24.5843 39.6675C24.6338 38.0205 23.3208 36.6439 21.661 36.6439C20.0012 36.6193 18.6634 37.9468 18.6634 39.5446C18.6386 41.1916 19.9764 42.519 21.6114 42.519Z" stroke="black" stroke-miterlimit="10" stroke-linecap="round" stroke-linejoin="round"/>
</svg>
