<svg width="23" height="23" viewBox="0 0 23 23" fill="none" xmlns="http://www.w3.org/2000/svg">
<path d="M3.94341 14.1248C2.39583 10.6269 3.18479 6.66876 6.00686 3.78452C9.67858 0.0718271 15.6565 0.0718271 19.3282 3.78452C23 7.49721 23 13.5418 19.3282 17.2545C16.5062 20.1081 12.3489 20.7831 8.88962 19.249C8.88962 19.249 6.94755 18.3898 5.91583 17.1318C4.8841 15.8738 3.94341 14.1248 3.94341 14.1248Z" stroke="black" stroke-miterlimit="10" stroke-linecap="round" stroke-linejoin="round"/>
<path d="M6.52344 18.0525L2.54826 22.072L1.27378 21.8879L1.00068 20.4458L4.97585 16.4263" stroke="black" stroke-miterlimit="10" stroke-linecap="round" stroke-linejoin="round"/>
<path d="M11.5908 3.63105C13.6846 3.29353 15.8998 3.96857 17.5081 5.59479C18.6308 6.73008 19.2984 8.1722 19.4805 9.67568" stroke="black" stroke-miterlimit="10" stroke-linecap="round" stroke-linejoin="round"/>
</svg>
