<svg width="20" height="19" viewBox="0 0 20 19" fill="none" xmlns="http://www.w3.org/2000/svg">
<path d="M7.35639 18.4766C8.46416 18.4766 9.36219 17.5912 9.36219 16.4991C9.36219 15.4069 8.46416 14.5215 7.35639 14.5215C6.24861 14.5215 5.35059 15.4069 5.35059 16.4991C5.35059 17.5912 6.24861 18.4766 7.35639 18.4766Z" stroke="black" stroke-miterlimit="10" stroke-linecap="round" stroke-linejoin="round"/>
<path d="M15.93 18.477C17.0239 18.477 17.9107 17.6027 17.9107 16.5241C17.9107 15.4456 17.0239 14.5713 15.93 14.5713C14.836 14.5713 13.9492 15.4456 13.9492 16.5241C13.9492 17.6027 14.836 18.477 15.93 18.477Z" stroke="black" stroke-miterlimit="10" stroke-linecap="round" stroke-linejoin="round"/>
<path d="M6.85414 12.5197H16.808L19.4656 2.35986H3.66992" stroke="black" stroke-miterlimit="10" stroke-linecap="round" stroke-linejoin="round"/>
<path d="M0.686523 1H3.24393L6.87946 12.5194" stroke="black" stroke-miterlimit="10" stroke-linecap="round" stroke-linejoin="round"/>
<path opacity="0.5" d="M4.69824 5.59766H18.6135" stroke="black" stroke-miterlimit="10" stroke-linecap="round" stroke-linejoin="round"/>
<path opacity="0.5" d="M5.75098 8.98486H17.7357" stroke="black" stroke-miterlimit="10" stroke-linecap="round" stroke-linejoin="round"/>
<g opacity="0.5">
<path opacity="0.5" d="M9.08566 12.5197L7.83203 2.35986" stroke="black" stroke-miterlimit="10" stroke-linecap="round" stroke-linejoin="round"/>
<path opacity="0.5" d="M14.3018 12.5192L15.5554 2.35938" stroke="black" stroke-miterlimit="10" stroke-linecap="round" stroke-linejoin="round"/>
<path opacity="0.5" d="M11.6426 12.5192L11.7429 2.35938" stroke="black" stroke-miterlimit="10" stroke-linecap="round" stroke-linejoin="round"/>
</g>
</svg>
