<svg width="56" height="43" viewBox="0 0 56 43" fill="none" xmlns="http://www.w3.org/2000/svg">
<path d="M15.454 32.5956H35.0952V1.39648H1.39453V32.5956H8.23997" stroke="black" stroke-miterlimit="10" stroke-linecap="round" stroke-linejoin="round"/>
<path d="M11.9006 41.6037C14.7507 41.6037 17.0611 39.2855 17.0611 36.4259C17.0611 33.5662 14.7507 31.248 11.9006 31.248C9.05063 31.248 6.74023 33.5662 6.74023 36.4259C6.74023 39.2855 9.05063 41.6037 11.9006 41.6037Z" stroke="black" stroke-miterlimit="10" stroke-linecap="round" stroke-linejoin="round"/>
<path d="M43.9944 41.6037C46.8444 41.6037 49.1548 39.2855 49.1548 36.4259C49.1548 33.5662 46.8444 31.248 43.9944 31.248C41.1444 31.248 38.834 33.5662 38.834 36.4259C38.834 39.2855 41.1444 41.6037 43.9944 41.6037Z" stroke="black" stroke-miterlimit="10" stroke-linecap="round" stroke-linejoin="round"/>
<path d="M45.8906 31.5918H54.6054V36.4262H49.1554" stroke="black" stroke-miterlimit="10" stroke-linecap="round" stroke-linejoin="round"/>
<path d="M42.1255 31.5918H35.1484V36.4262H38.8608" stroke="black" stroke-miterlimit="10" stroke-linecap="round" stroke-linejoin="round"/>
<path d="M35.0951 32.5952H21.3516V38.7769H35.0951V32.5952Z" stroke="black" stroke-miterlimit="10" stroke-linecap="round" stroke-linejoin="round"/>
<path d="M21.3521 36.4258H17.0605" stroke="black" stroke-miterlimit="10" stroke-linecap="round" stroke-linejoin="round"/>
<path d="M6.73983 36.4258H3.13281" stroke="black" stroke-miterlimit="10" stroke-linecap="round" stroke-linejoin="round"/>
<path d="M29.0132 22.874H1.39453" stroke="black" stroke-miterlimit="10" stroke-linecap="round" stroke-linejoin="round"/>
<path d="M26.0908 19.9414L29.0133 22.8738L26.0908 25.7797" stroke="black" stroke-miterlimit="10" stroke-linecap="round" stroke-linejoin="round"/>
<path d="M35.1484 7.07617H44.969C44.969 7.07617 47.4439 7.44602 48.2074 10.3255C48.971 13.205 50.6297 20.1 50.6297 20.1C50.6297 20.1 53.0519 21.3681 53.1835 24.1155L53.3152 31.5916" stroke="black" stroke-miterlimit="10" stroke-linecap="round" stroke-linejoin="round"/>
<path d="M48.128 10.0083H38.2021V18.7525L40.3874 20.9452H49.1549L50.3133 19.7828" stroke="black" stroke-miterlimit="10" stroke-linecap="round" stroke-linejoin="round"/>
<path d="M53.2095 26.7832H50.2344V28.9759H53.2358" stroke="black" stroke-miterlimit="10" stroke-linecap="round" stroke-linejoin="round"/>
</svg>
